<svg id="Layer_1" data-name="Layer 1" xmlns="http://www.w3.org/2000/svg" viewBox="0 0 512 512"><title>moneybag</title><path d="M0,256C0,114.61,114.61,0,256,0S512,114.63,512,256,397.38,512,256,512,0,397.39,0,256Z" fill="#0096d4"/><path d="M211.49,163h89s35.28-35.31,19.33-46.77-51.36,23.65-63.84,22.8c-12.46.86-47.87-34.28-63.83-22.8S211.49,163,211.49,163Z" fill="#fff"/><path d="M216.1,168.87a8,8,0,0,0,0,16h79.79a8,8,0,0,0,0-16Z" fill="#fff"/><path d="M274.76,294.08a33.91,33.91,0,0,0-7.36-4.46q-4.14-1.89-8.69-3.54l.08-26.22a12,12,0,0,1,6.58,3.17,9.23,9.23,0,0,1,2.55,6.94v2.09a21.3,21.3,0,0,0,3.05.22,12.63,12.63,0,0,0,3-.37,8.47,8.47,0,0,0,2.68-1.14,6.56,6.56,0,0,0,1.93-2,5.36,5.36,0,0,0,.75-2.9,8.07,8.07,0,0,0-2.2-5.87,15.38,15.38,0,0,0-5.39-3.46,27.55,27.55,0,0,0-6.76-1.62q-3.55-.42-6.23-.49l.08-9.51-5.87.68v9.06a37.84,37.84,0,0,0-8.46,1.82,22.32,22.32,0,0,0-7,3.81,17.82,17.82,0,0,0-4.79,6.08,19.29,19.29,0,0,0-1.79,8.54,18.15,18.15,0,0,0,1.86,8.47,21.16,21.16,0,0,0,4.94,6.25,32.06,32.06,0,0,0,7.1,4.59q4,1.92,8.31,3.56v27.63c-3.71-.25-6.53-1.31-8.43-3.17s-2.87-4.64-2.87-8.35v-2.16a21.65,21.65,0,0,0-3.12-.21,11.42,11.42,0,0,0-3.14.42,8.48,8.48,0,0,0-2.7,1.2,6.25,6.25,0,0,0-1.91,2.09,6,6,0,0,0-.69,3,8.94,8.94,0,0,0,2.45,6.57,16.54,16.54,0,0,0,5.93,3.84,31.45,31.45,0,0,0,7.32,1.77,57.51,57.51,0,0,0,6.57.46h.6l.08,9.27,5.34-1.12v-8.54a40,40,0,0,0,8.9-2.14,24.41,24.41,0,0,0,7.39-4.24,19.51,19.51,0,0,0,5-6.53,20.86,20.86,0,0,0,1.85-9.13,17.13,17.13,0,0,0-1.91-8.32A19.59,19.59,0,0,0,274.76,294.08Zm-26-11.91a16.28,16.28,0,0,1-3.62-2.69,11.48,11.48,0,0,1-3.41-8.54,9.75,9.75,0,0,1,.9-4.33,10.93,10.93,0,0,1,2.37-3.33,12.05,12.05,0,0,1,3.51-2.25,17,17,0,0,1,4.43-1.16l.08,24.44A38.51,38.51,0,0,1,248.8,282.17Zm20.92,35a11.78,11.78,0,0,1-2.56,3.79,13.83,13.83,0,0,1-3.86,2.69,17.47,17.47,0,0,1-4.75,1.54l.08-25.71c1.53.6,3,1.27,4.49,2a17.26,17.26,0,0,1,3.86,2.65,11.68,11.68,0,0,1,2.67,3.51,10.36,10.36,0,0,1,1,4.69A11.84,11.84,0,0,1,269.73,317.2Z" fill="#fff"/><path d="M300.5,190.67h-89c-39.54,28.83-67.19,89.94-67.19,128.74,0,52.2,50,78.65,111.7,78.65S367.7,371.6,367.7,319.41C367.7,280.61,340,219.5,300.5,190.67ZM256,353a60.48,60.48,0,1,1,60.48-60.48A60.49,60.49,0,0,1,256,353Z" fill="#fff"/></svg>